<svg xmlns="http://www.w3.org/2000/svg" width="42.674" height="43.435" viewBox="0 0 42.674 43.435" fill="none" xmlns:c2pa="http://c2pa.org/manifest"><metadata><c2pa:manifest>AAAWgmp1bWIAAAAeanVtZGMycGEAEQAQgAAAqgA4m3EDYzJwYQAAABZcanVtYgAAAEdqdW1kYzJtYQARABCAAACqADibcQN1cm46YzJwYTo0OWQ2ODQ4Mi04OGQ5LTQzZDgtOTIwOS1kZDlmYjY4MTkyNjUAAAADl2p1bWIAAAApanVtZGMyYXMAEQAQgAAAqgA4m3EDYzJwYS5hc3NlcnRpb25zAAAAALxqdW1iAAAARGp1bWRjYm9yABEAEIAAAKoAOJtxE2MycGEuaW5ncmVkaWVudC52MwAAAAAYYzJzaPPCJ2bQu24QxZEMTLQF9VoAAABwY2JvcqNpZGM6Zm9ybWF0bWltYWdlL3N2Zyt4bWxqaW5zdGFuY2VJRHgseG1wOmlpZDowNTExZGFmOC1lODQ0LTQ0YjUtYTcxZi03NzIxMjZhN2ZjMDdscmVsYXRpb25zaGlwaHBhcmVudE9mAAAB4mp1bWIAAABBanVtZGNib3IAEQAQgAAAqgA4m3ETYzJwYS5hY3Rpb25zLnYyAAAAABhjMnNo/sdyplovwyKjwLOD9MvHvgAAAZljYm9yomdhY3Rpb25zgqJmYWN0aW9ua2MycGEub3BlbmVkanBhcmFtZXRlcnOha2luZ3JlZGllbnRzgaJjdXJseC1zZWxmI2p1bWJmPWMycGEuYXNzZXJ0aW9ucy9jMnBhLmluZ3JlZGllbnQudjNkaGFzaFgg1izlwPCUnQiq3T3H+ETuxpn6hPsJk6JT3fnA4gt9IjykZmFjdGlvbngdY29tLmFudGhyb3BpYy5jbGF1ZGUucHJvdmlkZWRqcGFyYW1ldGVyc6F4H2NvbS5hbnRocm9waWMub3JpZ2luLWNvbmZpZGVuY2VndW5rbm93bmtkZXNjcmlwdGlvbnhmQ2xhdWRlIHByb3ZpZGVkIHRoaXMgZmlsZSBhdCB0aGUgcmVxdWVzdCBvZiBhIHVzZXIgYW5kIG1heSBoYXZlIGNyZWF0ZWQgb3IgbW9kaWZpZWQgdGhlIGZpbGUgY29udGVudHMubXNvZnR3YXJlQWdlbnShZG5hbWVmQ2xhdWRlcmFsbEFjdGlvbnNJbmNsdWRlZPUAAADIanVtYgAAAEBqdW1kY2JvcgARABCAAACqADibcRNjMnBhLmhhc2guZGF0YQAAAAAYYzJzaJTpwzkFnb428bwSPKRZiI4AAACAY2JvcqVjYWxnZnNoYTI1NmNwYWRNAAAAAAAAAAAAAAAAAGRoYXNoWCD+22hc4vpxfkLOBx0KfBeHXDDIS4UKVfAdzVVRXY0jP2RuYW1lbmp1bWJmIG1hbmlmZXN0amV4Y2x1c2lvbnOBomVzdGFydBiuZmxlbmd0aBkeBAAAAj5qdW1iAAAAJ2p1bWRjMmNsABEAEIAAAKoAOJtxA2MycGEuY2xhaW0udjIAAAACD2Nib3KlY2FsZ2ZzaGEyNTZpc2lnbmF0dXJleE1zZWxmI2p1bWJmPS9jMnBhL3VybjpjMnBhOjQ5ZDY4NDgyLTg4ZDktNDNkOC05MjA5LWRkOWZiNjgxOTI2NS9jMnBhLnNpZ25hdHVyZWppbnN0YW5jZUlEeCx4bXA6aWlkOmVlNWYzZTg1LTQ0MjEtNDIzMi04NzIwLWZiZmI0ZDAxNTQwZnJjcmVhdGVkX2Fzc2VydGlvbnODomN1cmx4LXNlbGYjanVtYmY9YzJwYS5hc3NlcnRpb25zL2MycGEuaW5ncmVkaWVudC52M2RoYXNoWCDWLOXA8JSdCKrdPcf4RO7GmfqE+wmTolPd+cDiC30iPKJjdXJseCpzZWxmI2p1bWJmPWMycGEuYXNzZXJ0aW9ucy9jMnBhLmFjdGlvbnMudjJkaGFzaFggFdXxq51TWsZcblqgV+SqDm9XzfF7DkKuuos4VV7hLFuiY3VybHgpc2VsZiNqdW1iZj1jMnBhLmFzc2VydGlvbnMvYzJwYS5oYXNoLmRhdGFkaGFzaFgg1vCKgC1zf631heGZsPvlK7qzDDIeu5aun4Q8roMchk10Y2xhaW1fZ2VuZXJhdG9yX2luZm+jZG5hbWVvQW50aHJvcGljIEZpbGVzZ3ZlcnNpb25lMS4wLjBrc3BlY1ZlcnNpb25lMi40LjAAABA4anVtYgAAAChqdW1kYzJjcwARABCAAACqADibcQNjMnBhLnNpZ25hdHVyZQAAABAIY2JvctKEWQISogEmGCFZAgowggIGMIIBjaADAgECAhRA5aAK7sI50L64g/oGQgU9Z1UTADAKBggqhkjOPQQDAzBJMRcwFQYDVQQKEw5BbnRocm9waWMsIFBCQzEuMCwGA1UEAxMlQW50aHJvcGljIENvbnRlbnQgQ3JlZGVudGlhbHMgUm9vdCBDQTAeFw0yNjA4MDcxODQzNTZaFw0yODA4MDYxOTQzNTZaMEQxFzAVBgNVBAoTDkFudGhyb3BpYywgUEJDMSkwJwYDVQQDEyBBbnRocm9waWMgQ2xhdWRlIENvbnRlbnQgU2lnbmluZzBZMBMGByqGSM49AgEGCCqGSM49AwEHA0IABJh6CmvLUBgFFNU0vUKlOVtE6djd17L5SuwX0LemFisBM3dkd/3cyjxFA3Qo5S46fX0/ihY0VZ7mfb9KF703t5OjWDBWMA4GA1UdDwEB/wQEAwIHgDAVBgNVHSUEDjAMBgorBgEEAYPoXgIBMAwGA1UdEwEB/wQCMAAwHwYDVR0jBBgwFoAUzlHiBIFOZFsj+OPEz5o+nMHXXMIwCgYIKoZIzj0EAwMDZwAwZAIwMXMdFJ4BetLLVY7ORuE9noqbbAZOZn/aArXyTwFAZfKrPzxF2vPoJNf1+UCdg1XGAjBwX1zd9WGqYkqmL5SFqw1QySjr1zJfpJM9+1rdDwSPLMOPOjKuiXjoU/pUUeG9RwmhY3BhZFkNngAAAAAAAAAAAAAAAAAAAAAAAAAAAAAAAAAAAAAAAAAAAAAAAAAAAAAAAAAAAAAAAAAAAAAAAAAAAAAAAAAAAAAAAAAAAAAAAAAAAAAAAAAAAAAAAAAAAAAAAAAAAAAAAAAAAAAAAAAAAAAAAAAAAAAAAAAAAAAAAAAAAAAAAAAAAAAAAAAAAAAAAAAAAAAAAAAAAAAAAAAAAAAAAAAAAAAAAAAAAAAAAAAAAAAAAAAAAAAAAAAAAAAAAAAAAAAAAAAAAAAAAAAAAAAAAAAAAAAAAAAAAAAAAAAAAAAAAAAAAAAAAAAAAAAAAAAAAAAAAAAAAAAAAAAAAAAAAAAAAAAAAAAAAAAAAAAAAAAAAAAAAAAAAAAAAAAAAAAAAAAAAAAAAAAAAAAAAAAAAAAAAAAAAAAAAAAAAAAAAAAAAAAAAAAAAAAAAAAAAAAAAAAAAAAAAAAAAAAAAAAAAAAAAAAAAAAAAAAAAAAAAAAAAAAAAAAAAAAAAAAAAAAAAAAAAAAAAAAAAAAAAAAAAAAAAAAAAAAAAAAAAAAAAAAAAAAAAAAAAAAAAAAAAAAAAAAAAAAAAAAAAAAAAAAAAAAAAAAAAAAAAAAAAAAAAAAAAAAAAAAAAAAAAAAAAAAAAAAAAAAAAAAAAAAAAAAAAAAAAAAAAAAAAAAAAAAAAAAAAAAAAAAAAAAAAAAAAAAAAAAAAAAAAAAAAAAAAAAAAAAAAAAAAAAAAAAAAAAAAAAAAAAAAAAAAAAAAAAAAAAAAAAAAAAAAAAAAAAAAAAAAAAAAAAAAAAAAAAAAAAAAAAAAAAAAAAAAAAAAAAAAAAAAAAAAAAAAAAAAAAAAAAAAAAAAAAAAAAAAAAAAAAAAAAAAAAAAAAAAAAAAAAAAAAAAAAAAAAAAAAAAAAAAAAAAAAAAAAAAAAAAAAAAAAAAAAAAAAAAAAAAAAAAAAAAAAAAAAAAAAAAAAAAAAAAAAAAAAAAAAAAAAAAAAAAAAAAAAAAAAAAAAAAAAAAAAAAAAAAAAAAAAAAAAAAAAAAAAAAAAAAAAAAAAAAAAAAAAAAAAAAAAAAAAAAAAAAAAAAAAAAAAAAAAAAAAAAAAAAAAAAAAAAAAAAAAAAAAAAAAAAAAAAAAAAAAAAAAAAAAAAAAAAAAAAAAAAAAAAAAAAAAAAAAAAAAAAAAAAAAAAAAAAAAAAAAAAAAAAAAAAAAAAAAAAAAAAAAAAAAAAAAAAAAAAAAAAAAAAAAAAAAAAAAAAAAAAAAAAAAAAAAAAAAAAAAAAAAAAAAAAAAAAAAAAAAAAAAAAAAAAAAAAAAAAAAAAAAAAAAAAAAAAAAAAAAAAAAAAAAAAAAAAAAAAAAAAAAAAAAAAAAAAAAAAAAAAAAAAAAAAAAAAAAAAAAAAAAAAAAAAAAAAAAAAAAAAAAAAAAAAAAAAAAAAAAAAAAAAAAAAAAAAAAAAAAAAAAAAAAAAAAAAAAAAAAAAAAAAAAAAAAAAAAAAAAAAAAAAAAAAAAAAAAAAAAAAAAAAAAAAAAAAAAAAAAAAAAAAAAAAAAAAAAAAAAAAAAAAAAAAAAAAAAAAAAAAAAAAAAAAAAAAAAAAAAAAAAAAAAAAAAAAAAAAAAAAAAAAAAAAAAAAAAAAAAAAAAAAAAAAAAAAAAAAAAAAAAAAAAAAAAAAAAAAAAAAAAAAAAAAAAAAAAAAAAAAAAAAAAAAAAAAAAAAAAAAAAAAAAAAAAAAAAAAAAAAAAAAAAAAAAAAAAAAAAAAAAAAAAAAAAAAAAAAAAAAAAAAAAAAAAAAAAAAAAAAAAAAAAAAAAAAAAAAAAAAAAAAAAAAAAAAAAAAAAAAAAAAAAAAAAAAAAAAAAAAAAAAAAAAAAAAAAAAAAAAAAAAAAAAAAAAAAAAAAAAAAAAAAAAAAAAAAAAAAAAAAAAAAAAAAAAAAAAAAAAAAAAAAAAAAAAAAAAAAAAAAAAAAAAAAAAAAAAAAAAAAAAAAAAAAAAAAAAAAAAAAAAAAAAAAAAAAAAAAAAAAAAAAAAAAAAAAAAAAAAAAAAAAAAAAAAAAAAAAAAAAAAAAAAAAAAAAAAAAAAAAAAAAAAAAAAAAAAAAAAAAAAAAAAAAAAAAAAAAAAAAAAAAAAAAAAAAAAAAAAAAAAAAAAAAAAAAAAAAAAAAAAAAAAAAAAAAAAAAAAAAAAAAAAAAAAAAAAAAAAAAAAAAAAAAAAAAAAAAAAAAAAAAAAAAAAAAAAAAAAAAAAAAAAAAAAAAAAAAAAAAAAAAAAAAAAAAAAAAAAAAAAAAAAAAAAAAAAAAAAAAAAAAAAAAAAAAAAAAAAAAAAAAAAAAAAAAAAAAAAAAAAAAAAAAAAAAAAAAAAAAAAAAAAAAAAAAAAAAAAAAAAAAAAAAAAAAAAAAAAAAAAAAAAAAAAAAAAAAAAAAAAAAAAAAAAAAAAAAAAAAAAAAAAAAAAAAAAAAAAAAAAAAAAAAAAAAAAAAAAAAAAAAAAAAAAAAAAAAAAAAAAAAAAAAAAAAAAAAAAAAAAAAAAAAAAAAAAAAAAAAAAAAAAAAAAAAAAAAAAAAAAAAAAAAAAAAAAAAAAAAAAAAAAAAAAAAAAAAAAAAAAAAAAAAAAAAAAAAAAAAAAAAAAAAAAAAAAAAAAAAAAAAAAAAAAAAAAAAAAAAAAAAAAAAAAAAAAAAAAAAAAAAAAAAAAAAAAAAAAAAAAAAAAAAAAAAAAAAAAAAAAAAAAAAAAAAAAAAAAAAAAAAAAAAAAAAAAAAAAAAAAAAAAAAAAAAAAAAAAAAAAAAAAAAAAAAAAAAAAAAAAAAAAAAAAAAAAAAAAAAAAAAAAAAAAAAAAAAAAAAAAAAAAAAAAAAAAAAAAAAAAAAAAAAAAAAAAAAAAAAAAAAAAAAAAAAAAAAAAAAAAAAAAAAAAAAAAAAAAAAAAAAAAAAAAAAAAAAAAAAAAAAAAAAAAAAAAAAAAAAAAAAAAAAAAAAAAAAAAAAAAAAAAAAAAAAAAAAAAAAAAAAAAAAAAAAAAAAAAAAAAAAAAAAAAAAAAAAAAAAAAAAAAAAAAAAAAAAAAAAAAAAAAAAAAAAAAAAAAAAAAAAAAAAAAAAAAAAAAAAAAAAAAAAAAAAAAAAAAAAAAAAAAAAAAAAAAAAAAAAAAAAAAAAAAAAAAAAAAAAAAAAAAAAAAAAAAAAAAAAAAAAAAAAAAAAAAAAAAAAAAAAAAAAAAAAAAAAAAAAAAAAAAAAAAAAAAAAAAAAAAAAAAAAAAAAAAAAAAAAAAAAAAAAAAAAAAAAAAAAAAAAAAAAAAAAAAAAAAAAAAAAAAAAAAAAAAAAAAAAAAAAAAAAAAAAAAAAAAAAAAAAAAAAAAAAAAAAAAAAAAAAAAAAAAAAAAAAAAAAAAAAAAAAAAAAAAAAAAAAAAAAAAAAAAAAAAAAAAAAAAAAAAAAAAAAAAAAAAAAAAAAAAAAAAAAAAAAAAAAAAAAAAAAAAAAAAAAAAAAAAAAAAAAAAAAAAAAAAAAAAAAAAAAAAAAAAAAAAAAAAAAAAAAAAAAAAAAAAAAAAAAAAAAAAAAAAAAAAAAAAAAAAAAAAAAAAAAAAAAAAAAAAAAAAAAAAAAAAAAAAAAAAAAAAAAAAAAAAAAAAAAAAAAAAAAAAAAAAAAAAAAAAAAAAAAAAAAAAAAAAAAAAAAAAAAAAAAAAAAAAAAAAAAAAAAAAAAAAAAAAAAAAAAAAAAAAAAAAAAAAAAAAAAAAAAAAAAAAAAAAAAAAAAAAAAAAAAAAAAAAAAAAAAAAAAAAAAAAAAAAAAAAAAAAAAAAAAAAAAAAAAAAAAAAAAAAAAAAAAAAAAAAAAAAAAAAAAAAAAAAAAAAAAAAAAAAAAAAAAAAAAAAAAAAAAAAAAAAAAAAAAAAAAAAAAAAAAAAAAAAAAAAAAAAAAAAAAAAAAAAAAAAAAAAAAAAAAAAAAAAAAAAAAAAAAAAAAAAAAAAAAAAAAAAAAAAAAAAAAAAAAAAAAAAAAAAAAAAAAAAAAAAAAAAAAAAAAAAAAAAAAAAAAAAAAAAAAAAAAAAAAAAAAAAAAAAAAAAAAAAAAAAAAAAAAAAAAAAAAAAAAAAAAAAAAAAAAAAAAAAAAAAAAAAAAAAAAAAAAAAAAAAAAAAAAAAAAAAAAAAAAAAAAAAAAAAAAAAAAAAAAAAAAAAAAAAAAAAAAAAAAAAAAAAAAAAAAAAAAAAAAAAAAAAAAAAAAAAAAAAAAAAAAAAAAAAAAAAAAAAAAAAAAAAAAAAAAAAAAAAAAAAAAAAAAAAAAAAAAAAAAAAAAAAAAAAAAAAAAAAAAAAAAAAAAAAAAAAAAAAAAAAAAAAAAAAAAAAAAAAAAAAAAAAAAAAAAAAAAAAAAAAAAAAAAAAAAAAAAAAAAAAAAAAAAAAAAAAAAAAAAAAAAAAAAAAAAAAAAAAAAAAAAAAAAAAAAAAAAAAAAAAAAAAAAAAAAAAAAAAAAAAAAAAAAAAAAAAAAAAAAAAAAAAAAAAAAAAAAAAAAAAAAAAAAAAAAAAAAAAAAAAAAAAAAAAAAAAAAAAAAAAAAAAAAAAAAAAAAAAAAAAAAAAAAAAAAAAAAAAAAAAAAAAAAAAAAAAAAAAAAAAAAAAAAAAAAAAAAAAAAAAAAAAAAAAAAAAAAAAAAAAAAAAPZYQBSLXiR2YJXIMs09T/HR9dBwmpDJD+msL97Se4RCtpwdnHNRZ8tA8XAaboyArL38hz+XqVwibsfO1yL4zaj2j+Q=</c2pa:manifest></metadata>
  <path d="M 29.942 4.395 C 30.341 4.395 30.663 4.719 30.663 5.117 C 30.663 5.516 30.341 5.84 29.942 5.84 C 29.543 5.84 29.221 5.516 29.221 5.117 C 29.221 4.719 29.543 4.395 29.942 4.395 Z M 29.942 7.157 C 31.068 7.157 31.983 6.242 31.983 5.117 C 31.983 3.993 31.068 3.078 29.942 3.078 C 28.817 3.078 27.902 3.993 27.902 5.117 C 27.902 6.242 28.817 7.157 29.942 7.157 Z M 36.203 29.738 C 36.203 30.101 35.909 30.396 35.549 30.396 L 25.163 30.396 C 24.797 30.396 24.503 30.101 24.503 29.738 C 24.503 29.374 24.797 29.08 25.163 29.08 L 35.548 29.08 C 35.909 29.08 36.203 29.374 36.203 29.738 Z M 36.203 26.307 C 36.203 26.671 35.909 26.965 35.549 26.965 L 25.163 26.965 C 24.797 26.965 24.503 26.671 24.503 26.307 C 24.503 25.944 24.797 25.649 25.163 25.649 L 35.548 25.649 C 35.909 25.649 36.203 25.944 36.203 26.307 Z M 14.107 28.139 L 18.57 34.04 L 14.107 34.041 L 14.107 28.139 Z M 13.447 35.357 L 19.896 35.357 C 20.439 35.357 20.743 34.734 20.417 34.302 L 13.973 25.78 C 13.593 25.278 12.792 25.55 12.792 26.176 L 12.793 34.699 C 12.793 35.063 13.087 35.357 13.447 35.357 Z M 41.354 35.851 L 41.354 12.773 C 41.354 10.941 38.819 9.393 35.82 9.393 L 33.857 9.393 L 36.457 15.679 L 38.492 15.679 C 38.853 15.679 39.152 15.974 39.152 16.337 C 39.152 16.701 38.853 16.996 38.492 16.996 L 37.006 16.996 L 37.994 19.384 C 38.326 20.187 38.093 21.085 37.478 21.633 L 38.509 24.12 C 38.648 24.456 38.487 24.841 38.149 24.98 C 37.825 25.117 37.431 24.966 37.289 24.624 L 36.264 22.137 C 35.429 22.173 34.643 21.717 34.306 20.909 L 32.687 16.996 L 27.198 16.996 L 25.579 20.909 C 25.252 21.695 24.477 22.178 23.627 22.135 L 22.596 24.624 C 22.49 24.878 22.246 25.03 21.986 25.03 C 21.525 25.03 21.198 24.556 21.381 24.12 L 22.407 21.634 C 21.792 21.085 21.559 20.188 21.891 19.385 L 22.884 16.996 L 21.392 16.996 C 21.032 16.996 20.738 16.701 20.738 16.338 C 20.738 15.974 21.032 15.679 21.392 15.679 L 23.427 15.679 L 26.027 9.393 L 6.299 9.393 C 4.44 9.393 2.549 8.775 1.32 7.583 L 1.32 30.66 C 1.32 32.492 3.854 34.04 6.854 34.04 L 7.076 34.04 L 7.075 11.533 C 7.075 10.907 7.875 10.634 8.256 11.136 L 25.579 34.04 L 36.374 34.04 C 38.235 34.04 40.123 34.658 41.354 35.851 Z M 36.375 42.118 L 36.175 42.118 L 36.175 35.356 L 36.375 35.356 C 39.12 35.356 41.354 36.873 41.354 38.737 C 41.354 40.602 39.12 42.118 36.375 42.118 Z M 25.091 40.326 L 28.679 40.326 L 8.39 13.495 L 8.39 16.766 L 9.499 16.766 C 9.865 16.766 10.159 17.061 10.159 17.424 C 10.159 17.787 9.865 18.082 9.499 18.082 L 8.39 18.082 L 8.39 22.656 L 9.499 22.656 C 9.865 22.656 10.159 22.951 10.159 23.314 C 10.159 23.678 9.865 23.972 9.499 23.972 L 8.39 23.972 L 8.39 28.546 L 9.499 28.546 C 9.865 28.546 10.159 28.841 10.159 29.204 C 10.159 29.568 9.865 29.862 9.499 29.862 L 8.39 29.862 L 8.39 34.437 L 9.499 34.437 C 9.865 34.437 10.159 34.731 10.159 35.095 C 10.159 35.458 9.865 35.753 9.499 35.753 L 8.39 35.753 L 8.39 40.326 L 12.643 40.326 L 12.643 38.851 C 12.643 38.487 12.937 38.193 13.303 38.193 C 13.663 38.193 13.957 38.487 13.957 38.851 L 13.957 40.326 L 18.21 40.326 L 18.21 38.851 C 18.21 38.487 18.504 38.193 18.87 38.193 C 19.231 38.193 19.524 38.487 19.524 38.851 L 19.524 40.326 L 23.777 40.326 L 23.777 38.851 C 23.777 38.487 24.071 38.192 24.432 38.192 C 24.798 38.192 25.091 38.487 25.091 38.851 L 25.091 40.326 Z M 6.299 1.316 L 6.498 1.316 L 6.499 8.077 L 6.299 8.077 C 3.554 8.077 1.32 6.561 1.32 4.697 C 1.32 2.832 3.554 1.316 6.299 1.316 Z M 29.942 2.036 C 28.245 2.036 26.859 3.419 26.859 5.117 C 26.859 6.519 27.802 7.703 29.083 8.076 L 30.802 8.076 C 32.082 7.703 33.025 6.519 33.025 5.117 C 33.025 3.419 31.644 2.036 29.942 2.036 Z M 29.942 10.358 L 32.144 15.679 L 27.741 15.68 L 29.942 10.358 Z M 24.852 15.68 L 27.663 8.878 C 28.046 9.111 28.467 9.286 28.916 9.393 L 26.316 15.68 L 24.852 15.68 Z M 23.477 20.773 C 23.131 20.631 22.966 20.231 23.111 19.888 L 24.303 16.996 L 25.773 16.996 L 24.364 20.406 C 24.22 20.747 23.822 20.915 23.477 20.773 Z M 33.569 15.679 L 30.968 9.393 C 31.417 9.286 31.838 9.111 32.221 8.878 L 35.038 15.679 L 33.569 15.679 Z M 36.779 19.887 C 37.001 20.441 36.449 21.004 35.892 20.771 C 35.726 20.701 35.593 20.572 35.526 20.406 L 34.112 16.996 L 35.582 16.996 L 36.779 19.887 Z M 40.561 9.366 C 39.285 8.534 37.6 8.076 35.82 8.076 L 33.313 8.076 L 33.275 7.983 C 33.94 7.212 34.339 6.212 34.339 5.117 C 34.339 2.692 32.365 0.72 29.942 0.72 C 27.519 0.72 25.545 2.693 25.545 5.117 C 25.545 6.212 25.944 7.212 26.61 7.983 L 26.571 8.077 L 7.813 8.077 L 7.813 0.658 C 7.813 0.294 7.519 0 7.153 0 L 6.299 0 C 4.658 0 3.105 0.464 1.93 1.305 C 0.688 2.195 0 3.4 0 4.697 L 0.001 30.661 C 0.001 31.969 0.755 33.179 2.113 34.068 C 3.389 34.9 5.074 35.357 6.854 35.357 L 7.076 35.357 L 7.076 40.984 C 7.076 41.348 7.37 41.643 7.73 41.643 L 29.998 41.642 C 30.544 41.642 30.852 41.021 30.525 40.587 L 26.572 35.357 L 34.861 35.356 L 34.861 42.776 C 34.861 43.14 35.155 43.435 35.521 43.435 L 36.375 43.435 C 38.016 43.435 39.569 42.97 40.744 42.129 C 41.986 41.239 42.674 40.034 42.674 38.737 L 42.673 12.773 C 42.673 11.465 41.919 10.255 40.561 9.366 Z" fill="currentColor" fill-rule="evenodd"></path>
</svg>